<svg width="48" height="48" viewBox="0 0 48 48" fill="none" xmlns="http://www.w3.org/2000/svg">
<path d="M15.6177 22.2674C15.7502 22.1266 15.9092 22.0133 16.0855 21.934C16.2618 21.8547 16.4521 21.8108 16.6454 21.805C16.8386 21.7992 17.0312 21.8315 17.212 21.9001C17.3927 21.9687 17.5582 22.0723 17.699 22.2049C24.474 28.587 31.272 32.4699 39.2717 34.4492C40.351 31.5047 40.4467 28.264 39.5146 25.1024C38.2779 20.9075 35.3979 17.2527 31.1882 14.5337C27.4304 12.1063 23.6744 11.4742 20.0408 10.8632C15.4566 10.0922 11.1265 9.36342 6.99411 4.98815C6.53404 4.50416 5.90743 4.31001 5.30841 4.46736C4.62383 4.65138 4.16468 5.19243 3.94477 6.0868C3.42949 8.18012 3.76074 14.0469 5.20996 20.2404C7.53699 30.1908 11.2507 35.2258 13.9568 37.6982C17.4533 40.8901 22.0191 42.6577 26.5563 42.6577C27.4115 42.6591 28.2656 42.5963 29.1115 42.47C32.9494 41.8885 36.1441 39.9608 37.9448 37.1562C29.7105 35.0141 22.676 30.9407 15.6775 24.3516C15.5364 24.2188 15.423 24.0595 15.3437 23.8828C15.2643 23.7061 15.2206 23.5155 15.2151 23.3219C15.2095 23.1283 15.2422 22.9355 15.3113 22.7546C15.3804 22.5736 15.4845 22.4081 15.6177 22.2674ZM43.7813 35.3509C42.2327 35.1126 40.7328 34.8135 39.2726 34.4519C38.9724 35.2715 38.5988 36.0624 38.1565 36.8148C38.0893 36.9299 38.0184 37.044 37.9457 37.1562C39.7218 37.616 41.5203 37.9845 43.3341 38.2604C43.5271 38.2943 43.7249 38.2894 43.916 38.2458C44.107 38.2023 44.2875 38.1211 44.4467 38.0069C44.606 37.8927 44.7408 37.7479 44.8434 37.5809C44.946 37.4139 45.0142 37.2282 45.044 37.0345C45.0738 36.8408 45.0647 36.6431 45.0171 36.453C44.9696 36.2629 44.8845 36.0842 44.767 35.9274C44.6495 35.7706 44.5018 35.6389 44.3327 35.5399C44.1636 35.4409 43.9764 35.3766 43.7822 35.3509H43.7813Z" fill="#2A4202"/>
</svg>