<svg width="393" height="325" viewBox="0 0 393 325" fill="none" xmlns="http://www.w3.org/2000/svg">
<path d="M358.538 5H34.4615C18.1904 5 5 15.8485 5 29.2308V295.769C5 309.152 18.1904 320 34.4615 320H358.538C374.81 320 388 309.152 388 295.769V29.2308C388 15.8485 374.81 5 358.538 5Z" stroke="#A6A2A2" stroke-width="10"/>
<path d="M132.979 126.187C146.349 126.187 157.188 115.349 157.188 101.979C157.188 88.6092 146.349 77.7708 132.979 77.7708C119.609 77.7708 108.771 88.6092 108.771 101.979C108.771 115.349 119.609 126.187 132.979 126.187Z" stroke="#A6A2A2" stroke-width="10"/>
<path d="M95 255L137.938 184.375L180.875 255L252.438 142L324 255" stroke="#D9D9D9" stroke-width="10" stroke-linecap="round" stroke-linejoin="round"/>
</svg>
